<svg width="41" height="41" viewBox="0 0 41 41" fill="none" xmlns="http://www.w3.org/2000/svg">
<path d="M20.7881 13.2088C20.1396 13.2166 19.499 13.3181 18.8818 13.5135C19.1709 14.0135 19.3193 14.5838 19.3271 15.1619C19.3271 17.0525 17.7959 18.5838 15.9053 18.5838C15.3271 18.576 14.7568 18.4275 14.2568 18.1385C13.21 21.7556 15.3037 25.5369 18.9209 26.576C22.5381 27.615 26.3193 25.5291 27.3584 21.9119C28.3975 18.2947 26.3115 14.5135 22.6943 13.4744C22.0771 13.2947 21.4365 13.2088 20.7881 13.2088ZM38.1553 19.1541C34.8428 12.6931 28.2881 8.32596 20.7881 8.32596C13.2881 8.32596 6.7334 12.701 3.4209 19.1541C3.13965 19.7166 3.13965 20.3728 3.4209 20.9353C6.7334 27.3963 13.2881 31.7635 20.7881 31.7635C28.2881 31.7635 34.8428 27.3885 38.1553 20.9353C38.4365 20.3728 38.4365 19.7166 38.1553 19.1541ZM20.7881 28.8338C14.7646 28.8338 9.24902 25.4744 6.26465 20.0447C9.24902 14.615 14.7646 11.2556 20.7881 11.2556C26.8115 11.2556 32.3271 14.615 35.3115 20.0447C32.3271 25.4744 26.8115 28.8338 20.7881 28.8338Z" fill="black"/>
</svg>
